<mxfile host="Electron" agent="Mozilla/5.0 (Windows NT 10.0; Win64; x64) AppleWebKit/537.36 (KHTML, like Gecko) draw.io/24.7.17 Chrome/128.0.6613.36 Electron/32.0.1 Safari/537.36" version="24.7.17">
  <diagram name="第 1 页" id="mfdoXNe44LkLxR3i7E1H">
    <mxGraphModel dx="3536" dy="1370" grid="1" gridSize="10" guides="1" tooltips="1" connect="1" arrows="1" fold="1" page="1" pageScale="1" pageWidth="1169" pageHeight="827" math="0" shadow="0">
      <root>
        <mxCell id="0" />
        <mxCell id="1" parent="0" />
        <mxCell id="lCqEydsvgBsQmXbP9-4n-1" value="" style="rounded=0;whiteSpace=wrap;html=1;fillColor=#f5f5f5;fontColor=#333333;strokeColor=#666666;" parent="1" vertex="1">
          <mxGeometry x="430" y="140" width="900" height="510" as="geometry" />
        </mxCell>
        <mxCell id="lCqEydsvgBsQmXbP9-4n-2" value="" style="rounded=0;whiteSpace=wrap;html=1;" parent="1" vertex="1">
          <mxGeometry x="712.5" y="230" width="335" height="370" as="geometry" />
        </mxCell>
        <mxCell id="lCqEydsvgBsQmXbP9-4n-3" value="" style="endArrow=classic;html=1;rounded=0;entryX=0.5;entryY=0;entryDx=0;entryDy=0;" parent="1" target="lCqEydsvgBsQmXbP9-4n-2" edge="1">
          <mxGeometry width="50" height="50" relative="1" as="geometry">
            <mxPoint x="890" y="90" as="sourcePoint" />
            <mxPoint x="900" y="50" as="targetPoint" />
          </mxGeometry>
        </mxCell>
        <mxCell id="lCqEydsvgBsQmXbP9-4n-4" value="" style="endArrow=classic;html=1;rounded=0;entryX=0;entryY=0.5;entryDx=0;entryDy=0;" parent="1" target="lCqEydsvgBsQmXbP9-4n-1" edge="1">
          <mxGeometry width="50" height="50" relative="1" as="geometry">
            <mxPoint x="330" y="450" as="sourcePoint" />
            <mxPoint x="410" y="380" as="targetPoint" />
          </mxGeometry>
        </mxCell>
        <mxCell id="lCqEydsvgBsQmXbP9-4n-6" value="外侧放背景" style="text;html=1;align=center;verticalAlign=middle;whiteSpace=wrap;rounded=0;strokeWidth=1;fontSize=20;" parent="1" vertex="1">
          <mxGeometry x="170" y="410" width="160" height="80" as="geometry" />
        </mxCell>
        <mxCell id="lCqEydsvgBsQmXbP9-4n-8" value="居中" style="text;html=1;align=center;verticalAlign=middle;whiteSpace=wrap;rounded=0;fontSize=20;" parent="1" vertex="1">
          <mxGeometry x="830" y="50" width="130" height="40" as="geometry" />
        </mxCell>
        <mxCell id="lCqEydsvgBsQmXbP9-4n-9" value="登录OFIndex" style="text;html=1;align=center;verticalAlign=middle;whiteSpace=wrap;rounded=0;fontSize=24;" parent="1" vertex="1">
          <mxGeometry x="795" y="230" width="170" height="70" as="geometry" />
        </mxCell>
        <mxCell id="lCqEydsvgBsQmXbP9-4n-10" value="输入账号" style="rounded=0;whiteSpace=wrap;html=1;" parent="1" vertex="1">
          <mxGeometry x="755" y="330" width="250" height="30" as="geometry" />
        </mxCell>
        <mxCell id="lCqEydsvgBsQmXbP9-4n-11" value="输入密码" style="rounded=0;whiteSpace=wrap;html=1;" parent="1" vertex="1">
          <mxGeometry x="755" y="390" width="250" height="30" as="geometry" />
        </mxCell>
        <mxCell id="lCqEydsvgBsQmXbP9-4n-12" value="管理员入口" style="rounded=1;whiteSpace=wrap;html=1;" parent="1" vertex="1">
          <mxGeometry x="982.5" y="230" width="65" height="30" as="geometry" />
        </mxCell>
        <mxCell id="lCqEydsvgBsQmXbP9-4n-13" value="" style="shape=flexArrow;endArrow=classic;html=1;rounded=0;" parent="1" edge="1">
          <mxGeometry width="50" height="50" relative="1" as="geometry">
            <mxPoint x="945" y="560" as="sourcePoint" />
            <mxPoint x="1005" y="560" as="targetPoint" />
          </mxGeometry>
        </mxCell>
        <mxCell id="lCqEydsvgBsQmXbP9-4n-14" value="注册" style="text;html=1;align=center;verticalAlign=middle;whiteSpace=wrap;rounded=0;fontSize=16;" parent="1" vertex="1">
          <mxGeometry x="750" y="540" width="40" height="41" as="geometry" />
        </mxCell>
        <mxCell id="lCqEydsvgBsQmXbP9-4n-15" value="" style="endArrow=none;html=1;rounded=0;entryX=0.25;entryY=0;entryDx=0;entryDy=0;exitX=0;exitY=0.25;exitDx=0;exitDy=0;" parent="1" source="lCqEydsvgBsQmXbP9-4n-2" target="lCqEydsvgBsQmXbP9-4n-2" edge="1">
          <mxGeometry width="50" height="50" relative="1" as="geometry">
            <mxPoint x="1380" y="400" as="sourcePoint" />
            <mxPoint x="1430" y="350" as="targetPoint" />
          </mxGeometry>
        </mxCell>
        <mxCell id="lCqEydsvgBsQmXbP9-4n-16" value="手机号&lt;div&gt;登录&lt;/div&gt;" style="text;html=1;align=center;verticalAlign=middle;whiteSpace=wrap;rounded=0;" parent="1" vertex="1">
          <mxGeometry x="710" y="240" width="60" height="40" as="geometry" />
        </mxCell>
        <mxCell id="lCqEydsvgBsQmXbP9-4n-17" value="" style="rounded=0;whiteSpace=wrap;html=1;fillColor=#f5f5f5;fontColor=#333333;strokeColor=#666666;" parent="1" vertex="1">
          <mxGeometry x="430" y="700" width="900" height="510" as="geometry" />
        </mxCell>
        <mxCell id="lCqEydsvgBsQmXbP9-4n-18" value="" style="rounded=0;whiteSpace=wrap;html=1;" parent="1" vertex="1">
          <mxGeometry x="712.5" y="790" width="335" height="370" as="geometry" />
        </mxCell>
        <mxCell id="lCqEydsvgBsQmXbP9-4n-19" value="注册OFIndex" style="text;html=1;align=center;verticalAlign=middle;whiteSpace=wrap;rounded=0;fontSize=24;" parent="1" vertex="1">
          <mxGeometry x="795" y="790" width="170" height="70" as="geometry" />
        </mxCell>
        <mxCell id="lCqEydsvgBsQmXbP9-4n-20" value="输入昵称" style="rounded=0;whiteSpace=wrap;html=1;" parent="1" vertex="1">
          <mxGeometry x="755" y="890" width="250" height="30" as="geometry" />
        </mxCell>
        <mxCell id="lCqEydsvgBsQmXbP9-4n-21" value="输入密码" style="rounded=0;whiteSpace=wrap;html=1;" parent="1" vertex="1">
          <mxGeometry x="755" y="950" width="250" height="30" as="geometry" />
        </mxCell>
        <mxCell id="lCqEydsvgBsQmXbP9-4n-23" value="" style="shape=flexArrow;endArrow=classic;html=1;rounded=0;" parent="1" edge="1">
          <mxGeometry width="50" height="50" relative="1" as="geometry">
            <mxPoint x="945" y="1120" as="sourcePoint" />
            <mxPoint x="1005" y="1120" as="targetPoint" />
          </mxGeometry>
        </mxCell>
        <mxCell id="lCqEydsvgBsQmXbP9-4n-27" value="" style="endArrow=classic;html=1;rounded=0;exitX=0.5;exitY=1;exitDx=0;exitDy=0;entryX=0.5;entryY=0;entryDx=0;entryDy=0;" parent="1" source="lCqEydsvgBsQmXbP9-4n-14" target="lCqEydsvgBsQmXbP9-4n-17" edge="1">
          <mxGeometry width="50" height="50" relative="1" as="geometry">
            <mxPoint x="1410" y="730" as="sourcePoint" />
            <mxPoint x="1460" y="680" as="targetPoint" />
          </mxGeometry>
        </mxCell>
        <mxCell id="lCqEydsvgBsQmXbP9-4n-28" value="" style="endArrow=classic;html=1;rounded=0;" parent="1" edge="1">
          <mxGeometry width="50" height="50" relative="1" as="geometry">
            <mxPoint x="970" y="1120" as="sourcePoint" />
            <mxPoint x="850" y="1310" as="targetPoint" />
          </mxGeometry>
        </mxCell>
        <mxCell id="lCqEydsvgBsQmXbP9-4n-29" value="" style="rounded=0;whiteSpace=wrap;html=1;fillColor=#f5f5f5;fontColor=#333333;strokeColor=#666666;" parent="1" vertex="1">
          <mxGeometry x="430" y="1310" width="900" height="510" as="geometry" />
        </mxCell>
        <mxCell id="lCqEydsvgBsQmXbP9-4n-30" value="" style="rounded=0;whiteSpace=wrap;html=1;" parent="1" vertex="1">
          <mxGeometry x="712.5" y="1400" width="335" height="370" as="geometry" />
        </mxCell>
        <mxCell id="lCqEydsvgBsQmXbP9-4n-31" value="注册成功" style="text;html=1;align=center;verticalAlign=middle;whiteSpace=wrap;rounded=0;fontSize=24;" parent="1" vertex="1">
          <mxGeometry x="795" y="1400" width="170" height="70" as="geometry" />
        </mxCell>
        <mxCell id="lCqEydsvgBsQmXbP9-4n-34" value="" style="shape=flexArrow;endArrow=classic;html=1;rounded=0;" parent="1" edge="1">
          <mxGeometry width="50" height="50" relative="1" as="geometry">
            <mxPoint x="945" y="1730" as="sourcePoint" />
            <mxPoint x="1005" y="1730" as="targetPoint" />
          </mxGeometry>
        </mxCell>
        <mxCell id="lCqEydsvgBsQmXbP9-4n-35" value="xxxxxxxxxxxxxxx" style="text;html=1;align=center;verticalAlign=middle;whiteSpace=wrap;rounded=0;strokeColor=default;" parent="1" vertex="1">
          <mxGeometry x="780" y="1530" width="200" height="40" as="geometry" />
        </mxCell>
        <mxCell id="lCqEydsvgBsQmXbP9-4n-36" value="复制" style="text;html=1;align=center;verticalAlign=middle;whiteSpace=wrap;rounded=0;fontSize=20;strokeColor=default;" parent="1" vertex="1">
          <mxGeometry x="830" y="1600" width="100" height="30" as="geometry" />
        </mxCell>
        <mxCell id="lCqEydsvgBsQmXbP9-4n-37" value="" style="endArrow=classic;html=1;rounded=0;entryX=1;entryY=0.5;entryDx=0;entryDy=0;" parent="1" target="lCqEydsvgBsQmXbP9-4n-35" edge="1">
          <mxGeometry width="50" height="50" relative="1" as="geometry">
            <mxPoint x="1430" y="1500" as="sourcePoint" />
            <mxPoint x="1480" y="1450" as="targetPoint" />
          </mxGeometry>
        </mxCell>
        <mxCell id="lCqEydsvgBsQmXbP9-4n-38" value="显示账号ID" style="text;html=1;align=center;verticalAlign=middle;whiteSpace=wrap;rounded=0;fontSize=20;" parent="1" vertex="1">
          <mxGeometry x="1420" y="1480" width="130" height="30" as="geometry" />
        </mxCell>
        <mxCell id="lCqEydsvgBsQmXbP9-4n-39" value="" style="endArrow=classic;html=1;rounded=0;" parent="1" edge="1">
          <mxGeometry width="50" height="50" relative="1" as="geometry">
            <mxPoint x="980" y="1730" as="sourcePoint" />
            <mxPoint x="1000" y="1900" as="targetPoint" />
          </mxGeometry>
        </mxCell>
        <mxCell id="lCqEydsvgBsQmXbP9-4n-40" value="直接以登录状态进主页" style="text;html=1;align=center;verticalAlign=middle;whiteSpace=wrap;rounded=0;fontSize=20;" parent="1" vertex="1">
          <mxGeometry x="890" y="1900" width="220" height="60" as="geometry" />
        </mxCell>
        <mxCell id="lCqEydsvgBsQmXbP9-4n-41" value="" style="endArrow=classic;html=1;rounded=0;exitX=1;exitY=0.5;exitDx=0;exitDy=0;" parent="1" source="lCqEydsvgBsQmXbP9-4n-12" edge="1">
          <mxGeometry width="50" height="50" relative="1" as="geometry">
            <mxPoint x="1460" y="300" as="sourcePoint" />
            <mxPoint x="1510" y="250" as="targetPoint" />
          </mxGeometry>
        </mxCell>
        <mxCell id="lCqEydsvgBsQmXbP9-4n-42" value="" style="endArrow=classic;html=1;rounded=0;exitX=0;exitY=0.5;exitDx=0;exitDy=0;" parent="1" source="lCqEydsvgBsQmXbP9-4n-16" edge="1">
          <mxGeometry width="50" height="50" relative="1" as="geometry">
            <mxPoint x="240" y="320" as="sourcePoint" />
            <mxPoint x="130" y="330" as="targetPoint" />
          </mxGeometry>
        </mxCell>
        <mxCell id="lCqEydsvgBsQmXbP9-4n-43" value="" style="rounded=0;whiteSpace=wrap;html=1;fillColor=#f5f5f5;fontColor=#333333;strokeColor=#666666;" parent="1" vertex="1">
          <mxGeometry x="1510" y="140" width="900" height="510" as="geometry" />
        </mxCell>
        <mxCell id="lCqEydsvgBsQmXbP9-4n-44" value="" style="rounded=0;whiteSpace=wrap;html=1;" parent="1" vertex="1">
          <mxGeometry x="1792.5" y="230" width="335" height="370" as="geometry" />
        </mxCell>
        <mxCell id="lCqEydsvgBsQmXbP9-4n-45" value="登录OFIndex" style="text;html=1;align=center;verticalAlign=middle;whiteSpace=wrap;rounded=0;fontSize=24;" parent="1" vertex="1">
          <mxGeometry x="1875" y="230" width="170" height="70" as="geometry" />
        </mxCell>
        <mxCell id="lCqEydsvgBsQmXbP9-4n-46" value="输入账号" style="rounded=0;whiteSpace=wrap;html=1;" parent="1" vertex="1">
          <mxGeometry x="1835" y="330" width="250" height="30" as="geometry" />
        </mxCell>
        <mxCell id="lCqEydsvgBsQmXbP9-4n-47" value="输入密码" style="rounded=0;whiteSpace=wrap;html=1;" parent="1" vertex="1">
          <mxGeometry x="1835" y="390" width="250" height="30" as="geometry" />
        </mxCell>
        <mxCell id="lCqEydsvgBsQmXbP9-4n-49" value="" style="shape=flexArrow;endArrow=classic;html=1;rounded=0;" parent="1" edge="1">
          <mxGeometry width="50" height="50" relative="1" as="geometry">
            <mxPoint x="2025" y="560" as="sourcePoint" />
            <mxPoint x="2085" y="560" as="targetPoint" />
          </mxGeometry>
        </mxCell>
        <mxCell id="lCqEydsvgBsQmXbP9-4n-53" value="" style="shape=flexArrow;endArrow=classic;html=1;rounded=0;" parent="1" edge="1">
          <mxGeometry width="50" height="50" relative="1" as="geometry">
            <mxPoint x="815" y="1120" as="sourcePoint" />
            <mxPoint x="755" y="1120" as="targetPoint" />
          </mxGeometry>
        </mxCell>
        <mxCell id="lCqEydsvgBsQmXbP9-4n-55" value="" style="shape=flexArrow;endArrow=classic;html=1;rounded=0;" parent="1" edge="1">
          <mxGeometry width="50" height="50" relative="1" as="geometry">
            <mxPoint x="1895" y="560.13" as="sourcePoint" />
            <mxPoint x="1835" y="560.13" as="targetPoint" />
          </mxGeometry>
        </mxCell>
        <mxCell id="lCqEydsvgBsQmXbP9-4n-56" value="管理员" style="text;html=1;align=center;verticalAlign=middle;whiteSpace=wrap;rounded=0;fontSize=15;" parent="1" vertex="1">
          <mxGeometry x="1930" y="280" width="60" height="30" as="geometry" />
        </mxCell>
        <mxCell id="lCqEydsvgBsQmXbP9-4n-57" value="" style="rounded=0;whiteSpace=wrap;html=1;fillColor=#f5f5f5;fontColor=#333333;strokeColor=#666666;" parent="1" vertex="1">
          <mxGeometry x="-770" y="140" width="900" height="510" as="geometry" />
        </mxCell>
        <mxCell id="lCqEydsvgBsQmXbP9-4n-58" value="" style="rounded=0;whiteSpace=wrap;html=1;" parent="1" vertex="1">
          <mxGeometry x="-487.5" y="230" width="335" height="370" as="geometry" />
        </mxCell>
        <mxCell id="lCqEydsvgBsQmXbP9-4n-59" value="登录OFIndex" style="text;html=1;align=center;verticalAlign=middle;whiteSpace=wrap;rounded=0;fontSize=24;" parent="1" vertex="1">
          <mxGeometry x="-405" y="230" width="170" height="70" as="geometry" />
        </mxCell>
        <mxCell id="lCqEydsvgBsQmXbP9-4n-60" value="输入手机号" style="rounded=0;whiteSpace=wrap;html=1;" parent="1" vertex="1">
          <mxGeometry x="-445" y="330" width="250" height="30" as="geometry" />
        </mxCell>
        <mxCell id="lCqEydsvgBsQmXbP9-4n-61" value="输入密码" style="rounded=0;whiteSpace=wrap;html=1;" parent="1" vertex="1">
          <mxGeometry x="-445" y="390" width="250" height="30" as="geometry" />
        </mxCell>
        <mxCell id="lCqEydsvgBsQmXbP9-4n-63" value="" style="shape=flexArrow;endArrow=classic;html=1;rounded=0;" parent="1" edge="1">
          <mxGeometry width="50" height="50" relative="1" as="geometry">
            <mxPoint x="-255" y="560" as="sourcePoint" />
            <mxPoint x="-195" y="560" as="targetPoint" />
          </mxGeometry>
        </mxCell>
        <mxCell id="lCqEydsvgBsQmXbP9-4n-67" value="" style="shape=flexArrow;endArrow=classic;html=1;rounded=0;" parent="1" edge="1">
          <mxGeometry width="50" height="50" relative="1" as="geometry">
            <mxPoint x="-385" y="559.88" as="sourcePoint" />
            <mxPoint x="-445" y="559.88" as="targetPoint" />
          </mxGeometry>
        </mxCell>
        <mxCell id="lCqEydsvgBsQmXbP9-4n-68" value="" style="endArrow=classic;html=1;rounded=0;" parent="1" edge="1">
          <mxGeometry width="50" height="50" relative="1" as="geometry">
            <mxPoint x="-420" y="560" as="sourcePoint" />
            <mxPoint x="-270" y="760" as="targetPoint" />
          </mxGeometry>
        </mxCell>
        <mxCell id="lCqEydsvgBsQmXbP9-4n-69" value="点击返回上一页" style="text;html=1;align=center;verticalAlign=middle;whiteSpace=wrap;rounded=0;fontSize=20;" parent="1" vertex="1">
          <mxGeometry x="-330" y="760" width="160" height="70" as="geometry" />
        </mxCell>
        <mxCell id="lCqEydsvgBsQmXbP9-4n-71" value="验证码登录" style="rounded=0;whiteSpace=wrap;html=1;" parent="1" vertex="1">
          <mxGeometry x="-380" y="430" width="120" height="20" as="geometry" />
        </mxCell>
        <mxCell id="lCqEydsvgBsQmXbP9-4n-72" value="" style="endArrow=classic;html=1;rounded=0;exitX=0.5;exitY=1;exitDx=0;exitDy=0;entryX=0.75;entryY=0;entryDx=0;entryDy=0;" parent="1" source="lCqEydsvgBsQmXbP9-4n-71" target="lCqEydsvgBsQmXbP9-4n-73" edge="1">
          <mxGeometry width="50" height="50" relative="1" as="geometry">
            <mxPoint x="-90" y="770" as="sourcePoint" />
            <mxPoint x="-40" y="932.5" as="targetPoint" />
          </mxGeometry>
        </mxCell>
        <mxCell id="lCqEydsvgBsQmXbP9-4n-73" value="" style="rounded=0;whiteSpace=wrap;html=1;fillColor=#f5f5f5;fontColor=#333333;strokeColor=#666666;" parent="1" vertex="1">
          <mxGeometry x="-760" y="930" width="900" height="510" as="geometry" />
        </mxCell>
        <mxCell id="lCqEydsvgBsQmXbP9-4n-74" value="" style="rounded=0;whiteSpace=wrap;html=1;" parent="1" vertex="1">
          <mxGeometry x="-477.5" y="1020" width="335" height="370" as="geometry" />
        </mxCell>
        <mxCell id="lCqEydsvgBsQmXbP9-4n-75" value="登录OFIndex" style="text;html=1;align=center;verticalAlign=middle;whiteSpace=wrap;rounded=0;fontSize=24;" parent="1" vertex="1">
          <mxGeometry x="-395" y="1020" width="170" height="70" as="geometry" />
        </mxCell>
        <mxCell id="lCqEydsvgBsQmXbP9-4n-76" value="输入手机号" style="rounded=0;whiteSpace=wrap;html=1;" parent="1" vertex="1">
          <mxGeometry x="-435" y="1120" width="250" height="30" as="geometry" />
        </mxCell>
        <mxCell id="lCqEydsvgBsQmXbP9-4n-77" value="输入验证码" style="rounded=0;whiteSpace=wrap;html=1;" parent="1" vertex="1">
          <mxGeometry x="-435" y="1180" width="250" height="30" as="geometry" />
        </mxCell>
        <mxCell id="lCqEydsvgBsQmXbP9-4n-78" value="" style="shape=flexArrow;endArrow=classic;html=1;rounded=0;" parent="1" edge="1">
          <mxGeometry width="50" height="50" relative="1" as="geometry">
            <mxPoint x="-245" y="1350" as="sourcePoint" />
            <mxPoint x="-185" y="1350" as="targetPoint" />
          </mxGeometry>
        </mxCell>
        <mxCell id="lCqEydsvgBsQmXbP9-4n-79" value="" style="shape=flexArrow;endArrow=classic;html=1;rounded=0;" parent="1" edge="1">
          <mxGeometry width="50" height="50" relative="1" as="geometry">
            <mxPoint x="-375" y="1349.88" as="sourcePoint" />
            <mxPoint x="-435" y="1349.88" as="targetPoint" />
          </mxGeometry>
        </mxCell>
        <mxCell id="lCqEydsvgBsQmXbP9-4n-80" value="手机号+密码登录" style="rounded=0;whiteSpace=wrap;html=1;" parent="1" vertex="1">
          <mxGeometry x="-370" y="1220" width="120" height="20" as="geometry" />
        </mxCell>
        <mxCell id="lCqEydsvgBsQmXbP9-4n-81" value="" style="rounded=0;whiteSpace=wrap;html=1;" parent="1" vertex="1">
          <mxGeometry x="-245" y="1180" width="60" height="30" as="geometry" />
        </mxCell>
        <mxCell id="lCqEydsvgBsQmXbP9-4n-82" value="发送" style="text;html=1;align=center;verticalAlign=middle;whiteSpace=wrap;rounded=0;" parent="1" vertex="1">
          <mxGeometry x="-245" y="1180" width="60" height="30" as="geometry" />
        </mxCell>
        <mxCell id="lCqEydsvgBsQmXbP9-4n-83" value="" style="endArrow=classic;html=1;rounded=0;exitX=1;exitY=0.5;exitDx=0;exitDy=0;" parent="1" source="lCqEydsvgBsQmXbP9-4n-82" edge="1">
          <mxGeometry width="50" height="50" relative="1" as="geometry">
            <mxPoint x="30" y="1260" as="sourcePoint" />
            <mxPoint x="-110" y="1481.4285714285713" as="targetPoint" />
          </mxGeometry>
        </mxCell>
        <mxCell id="lCqEydsvgBsQmXbP9-4n-85" value="点击后显示多少秒后可以重新发送" style="text;html=1;align=center;verticalAlign=middle;whiteSpace=wrap;rounded=0;fontSize=20;" parent="1" vertex="1">
          <mxGeometry x="-142.5" y="1480" width="212.5" height="60" as="geometry" />
        </mxCell>
        <mxCell id="X1_3QyTs8s3LT7aXJZaH-1" value="account/login" style="text;html=1;align=center;verticalAlign=middle;whiteSpace=wrap;rounded=0;fontSize=24;" vertex="1" parent="1">
          <mxGeometry x="430" y="60" width="170" height="60" as="geometry" />
        </mxCell>
        <mxCell id="X1_3QyTs8s3LT7aXJZaH-2" value="account/regist" style="text;html=1;align=center;verticalAlign=middle;whiteSpace=wrap;rounded=0;fontSize=24;" vertex="1" parent="1">
          <mxGeometry x="1330" y="890" width="170" height="60" as="geometry" />
        </mxCell>
        <mxCell id="X1_3QyTs8s3LT7aXJZaH-3" value="account/admin" style="text;html=1;align=center;verticalAlign=middle;whiteSpace=wrap;rounded=0;fontSize=24;" vertex="1" parent="1">
          <mxGeometry x="1740" y="80" width="170" height="60" as="geometry" />
        </mxCell>
      </root>
    </mxGraphModel>
  </diagram>
</mxfile>
